<?xml version="1.0" standalone="no"?>
<!DOCTYPE svg PUBLIC "-//W3C//DTD SVG 20010904//EN"
 "http://www.w3.org/TR/2001/REC-SVG-20010904/DTD/svg10.dtd">
<svg version="1.0" xmlns="http://www.w3.org/2000/svg"
 width="1280.000000pt" height="964.000000pt" viewBox="0 0 1280.000000 964.000000"
 preserveAspectRatio="xMidYMid meet">
<metadata>
Created by potrace 1.15, written by Peter Selinger 2001-2017
</metadata>
<g transform="translate(0.000000,964.000000) scale(0.100000,-0.100000)"
fill="#000000" stroke="none">
<path d="M2975 9601 c-358 -125 -737 -349 -1114 -659 l-104 -85 -43 23 c-24
12 -65 48 -91 79 -110 132 -151 166 -220 181 -78 18 -85 -52 -8 -84 25 -10 66
-37 93 -61 53 -48 120 -151 106 -164 -5 -5 -54 -28 -108 -51 -125 -53 -265
-122 -335 -167 -60 -38 -62 -37 -83 30 -8 28 -20 42 -44 52 -18 7 -59 38 -93
69 -61 57 -95 73 -129 62 -24 -8 -46 -54 -34 -70 5 -6 12 -60 15 -121 10 -220
86 -418 273 -720 34 -55 61 -102 59 -104 -8 -8 -349 -31 -355 -24 -147 176
-176 220 -208 318 -28 82 -32 105 -23 128 6 15 14 27 18 27 5 0 14 4 22 9 11
7 4 22 -34 70 -85 109 -119 118 -128 34 -22 -212 85 -456 272 -622 112 -99
123 -150 63 -287 -40 -91 -53 -147 -41 -187 5 -17 8 -32 6 -33 -1 -1 -155 94
-342 211 -187 117 -343 211 -346 209 -4 -2 -9 -12 -12 -23 -4 -16 30 -45 172
-153 97 -74 230 -167 296 -208 111 -70 243 -180 266 -222 13 -24 -5 -17 -115
48 -98 58 -130 69 -166 56 -24 -9 -23 -10 26 -56 28 -26 105 -80 172 -119
l122 -72 75 -155 c41 -85 75 -160 75 -167 0 -6 -37 -24 -83 -38 -104 -35 -215
-86 -247 -114 -22 -19 -22 -21 -5 -17 202 51 348 86 364 86 23 0 71 -54 71
-80 0 -24 0 -24 -170 -93 -280 -112 -383 -192 -456 -351 -40 -88 -12 -152 74
-163 53 -7 59 13 20 61 -42 51 -33 74 59 162 64 61 97 82 222 144 170 84 227
103 293 94 43 -5 50 -10 77 -53 30 -46 121 -140 211 -217 25 -21 79 -70 121
-109 48 -44 118 -93 190 -134 63 -36 137 -82 166 -103 57 -42 108 -102 99
-117 -12 -18 -146 -41 -244 -41 -139 0 -291 42 -354 98 -17 14 -18 12 -18 -29
0 -43 2 -46 53 -76 28 -17 85 -41 125 -53 101 -31 298 -25 494 15 l137 27 56
-46 c31 -25 63 -46 70 -46 16 0 26 -25 18 -45 -8 -23 -49 -41 -121 -55 -34 -7
-65 -16 -67 -21 -3 -4 18 -18 47 -32 52 -23 53 -23 93 -5 86 38 132 17 231
-109 41 -51 90 -103 108 -116 l34 -22 -86 -65 c-97 -73 -142 -134 -149 -203
-5 -38 -2 -47 18 -61 27 -19 84 -21 95 -4 4 6 -5 21 -22 35 l-29 23 23 42 c29
55 73 86 196 136 l99 41 46 -24 c79 -40 172 -66 259 -72 49 -4 86 -11 93 -19
6 -7 38 -19 71 -25 32 -7 68 -19 80 -28 20 -16 19 -17 -25 -58 -79 -73 -95
-113 -61 -161 31 -44 110 -26 309 69 95 45 120 53 185 57 80 4 160 -11 160
-31 0 -7 -14 -24 -32 -38 l-32 -26 18 -47 c10 -25 24 -46 32 -46 31 0 147 52
267 119 121 68 225 116 233 108 2 -2 -39 -57 -92 -123 -194 -242 -228 -404
-85 -404 35 0 64 23 265 208 291 269 420 348 607 371 61 8 225 -2 238 -14 2
-3 -7 -18 -21 -33 -54 -57 -44 -101 34 -146 72 -41 141 -49 308 -37 165 13
214 9 281 -25 25 -12 122 -46 215 -74 188 -57 330 -121 387 -176 21 -19 37
-37 35 -38 -2 -1 -77 -59 -168 -127 -91 -69 -170 -128 -175 -131 -6 -4 -51 4
-100 17 -139 36 -301 48 -529 40 l-198 -7 -147 -62 c-80 -35 -261 -109 -401
-167 l-255 -103 -194 -194 c-212 -212 -295 -277 -404 -318 -95 -36 -141 -68
-270 -190 -59 -57 -129 -113 -154 -125 -57 -27 -129 -35 -177 -19 -52 17 -66
2 -66 -67 0 -54 0 -54 43 -73 36 -17 66 -20 222 -20 239 0 337 -15 685 -99
239 -57 350 -79 483 -92 72 -7 117 -16 117 -23 0 -6 -7 -100 -15 -208 -27
-366 -9 -429 274 -977 100 -194 148 -335 161 -472 10 -109 19 -129 56 -129 44
0 50 20 57 167 8 164 23 237 65 323 18 36 44 117 58 180 36 166 58 227 141
400 81 168 117 260 132 346 10 50 8 58 -11 84 -18 25 -21 41 -19 115 1 56 -4
98 -13 118 -8 18 -17 48 -20 67 -4 19 -25 66 -48 104 -64 105 -61 125 32 223
99 103 150 182 277 426 58 111 124 234 148 272 23 39 50 95 59 126 19 67 61
128 119 170 23 18 101 60 172 95 72 36 151 76 177 90 45 25 50 26 110 15 39
-7 115 -35 198 -75 74 -35 153 -70 175 -77 51 -16 144 -108 179 -177 36 -72
56 -162 56 -262 l0 -86 -101 -48 c-586 -283 -1007 -817 -1140 -1447 -13 -62
-22 -139 -22 -189 1 -158 74 -577 148 -852 30 -111 36 -148 35 -223 -3 -167
-3 -171 31 -209 30 -35 32 -35 59 -21 35 18 50 64 50 152 0 55 4 66 34 106 19
25 80 114 137 199 56 84 122 179 146 210 23 31 43 61 43 67 0 17 61 151 94
206 51 85 133 192 265 344 231 268 312 389 370 556 27 79 35 121 39 200 4 83
10 109 33 155 57 115 65 196 39 420 -24 209 -25 325 -5 404 9 32 18 63 21 67
3 5 26 -17 52 -48 83 -105 239 -276 345 -381 l104 -103 -9 -62 c-4 -36 -24
-98 -47 -147 -158 -344 -210 -751 -137 -1070 27 -119 73 -250 111 -317 15 -28
25 -61 25 -87 0 -112 33 -270 121 -577 75 -266 95 -350 109 -479 15 -131 14
-128 44 -141 37 -17 75 -4 81 29 35 170 80 280 229 561 57 108 116 225 131
261 15 35 45 99 66 141 90 176 119 314 119 557 0 143 -5 207 -41 512 -20 168
-24 188 -49 220 -15 19 -39 75 -54 125 -26 84 -130 300 -189 392 -15 23 -52
58 -84 79 -67 43 -307 284 -360 361 -24 35 -67 74 -129 119 -190 134 -204 191
-82 321 120 127 207 172 297 152 86 -19 304 -136 533 -286 269 -177 420 -261
543 -302 83 -27 144 -41 460 -101 139 -27 273 -71 351 -117 60 -35 61 -35 93
-127 144 -398 330 -708 560 -928 189 -182 371 -282 616 -338 44 -11 107 -28
140 -40 34 -12 121 -27 200 -36 77 -8 199 -23 270 -34 87 -13 198 -21 335 -23
181 -4 212 -7 265 -26 97 -36 99 -36 128 -1 15 17 27 40 27 50 0 19 -48 65
-78 74 -16 5 -150 152 -358 391 -100 114 -246 313 -309 420 -42 69 -100 144
-191 245 -240 264 -333 341 -468 381 -82 25 -97 31 -151 64 -49 30 -129 49
-300 70 -87 11 -150 25 -190 42 -46 20 -74 25 -123 24 -48 -2 -71 2 -98 18
-19 11 -73 27 -122 36 -48 8 -148 28 -222 44 -234 51 -432 89 -529 101 -51 6
-102 15 -112 20 -9 6 -38 7 -63 4 -41 -6 -48 -4 -73 23 -17 18 -43 33 -68 37
-54 11 -77 23 -197 114 -58 43 -125 86 -148 96 -24 9 -61 33 -83 52 -42 35
-120 76 -217 114 -74 29 -165 78 -185 100 -15 17 -13 19 32 36 37 15 74 19
158 18 102 0 123 -4 286 -51 229 -67 281 -76 387 -71 82 4 96 8 179 50 49 26
107 50 129 53 21 4 66 22 99 40 33 18 148 79 255 135 308 162 438 254 512 364
62 91 239 263 343 332 99 66 208 121 318 164 69 26 72 29 75 62 4 41 -29 88
-61 88 -11 0 -170 -29 -351 -64 -369 -72 -372 -73 -901 -86 -384 -10 -513 -23
-663 -66 -222 -63 -371 -168 -491 -343 -40 -58 -51 -83 -51 -113 0 -27 -12
-59 -41 -107 l-41 -69 -87 -31 c-160 -57 -283 -139 -526 -346 -221 -189 -220
-188 -263 -182 -20 4 -43 2 -51 -2 -17 -11 -53 5 -168 72 -113 65 -328 238
-312 250 47 36 93 51 182 58 137 11 245 41 372 104 156 78 258 159 515 410
124 121 259 252 300 290 53 50 97 105 150 189 141 224 340 399 533 471 27 10
55 29 64 41 13 20 13 26 -1 52 -8 16 -22 32 -31 36 -9 3 -66 -19 -135 -54
-222 -111 -384 -170 -915 -333 -444 -136 -657 -217 -857 -327 -115 -62 -173
-163 -227 -392 -60 -253 -117 -347 -239 -402 l-43 -19 -47 22 c-25 13 -113 65
-194 117 -81 52 -174 109 -208 127 -33 19 -70 48 -82 67 -37 53 -67 69 -187
99 -84 21 -120 35 -139 54 l-25 26 34 53 c45 70 86 116 119 133 26 14 28 12
105 -65 l78 -79 30 16 c17 8 76 62 131 118 92 94 106 104 154 115 35 8 78 30
128 66 41 30 79 54 85 54 5 0 26 -16 48 -35 21 -19 44 -35 51 -35 6 0 46 32
88 71 94 86 216 168 429 287 89 50 179 102 200 115 21 13 55 32 76 42 56 26
116 99 177 216 42 79 72 120 124 173 l70 68 -27 20 c-20 14 -26 26 -22 39 8
24 -27 74 -63 91 -42 20 -50 60 -23 111 65 122 81 143 141 194 255 214 540
336 810 349 81 3 95 6 95 21 0 42 -211 60 -335 28 -102 -26 -262 -98 -420
-189 -80 -46 -146 -82 -148 -81 -8 7 62 130 104 182 26 32 122 132 214 223 98
97 183 190 205 225 21 33 68 92 105 130 80 83 110 135 110 190 l0 40 -87 -95
c-121 -132 -316 -330 -320 -326 -2 2 20 55 50 118 37 79 64 123 89 143 25 22
37 41 41 69 4 25 23 60 51 97 53 67 76 110 76 139 0 44 -36 19 -100 -67 -75
-101 -262 -298 -360 -378 -37 -30 -70 -55 -74 -55 -14 0 -46 67 -46 97 0 18
14 69 30 115 17 45 30 90 30 101 0 10 38 71 83 135 164 230 246 361 332 530
167 333 205 620 118 885 -24 73 -29 80 -87 123 -121 91 -210 122 -372 131 -81
4 -144 1 -232 -12 -119 -18 -121 -18 -132 -48 -5 -16 -10 -31 -10 -33 0 -2 25
8 56 22 94 42 191 50 345 30 72 -10 153 -24 179 -32 98 -29 187 -142 224 -284
20 -82 6 -230 -41 -415 -77 -301 -239 -567 -445 -730 -44 -34 -102 -75 -130
-90 l-50 -27 7 43 c18 114 65 264 203 646 22 61 38 114 35 117 -10 10 -32 -7
-59 -45 -29 -42 -47 -48 -82 -23 -27 19 -30 75 -6 153 16 54 23 126 13 136 -3
3 -23 -2 -45 -11 -33 -14 -84 -17 -314 -19 -256 -2 -283 -4 -385 -27 -60 -15
-121 -29 -135 -34 -42 -12 -20 1 106 65 l122 62 36 68 c38 73 48 142 24 174
-20 26 -144 40 -298 34 -99 -4 -180 -16 -305 -42 -347 -73 -316 -70 -403 -41
-142 46 -297 80 -502 108 -47 6 -233 12 -415 13 -372 3 -367 2 -302 74 28 31
33 44 29 70 -6 42 -34 59 -110 67 -65 7 -76 16 -41 35 l21 11 -24 25 c-27 29
-40 28 -248 -13 -270 -54 -593 -144 -990 -273 -135 -44 -267 -85 -295 -91 -27
-6 -101 -32 -165 -57 -142 -56 -197 -61 -259 -20 -22 15 -41 31 -41 35 0 12
668 264 895 338 162 52 363 107 520 141 31 7 41 14 43 31 3 21 0 23 -30 18
-18 -3 -67 -10 -108 -17 -310 -47 -645 -148 -1145 -346 l-290 -115 -305 -28
c-326 -31 -581 -60 -749 -85 -57 -8 -106 -14 -108 -12 -11 11 162 154 290 240
80 54 165 114 189 133 23 20 140 85 259 145 305 152 338 174 184 120z"/>
</g>
</svg>
